# xmcd
#
# Track frame offsets:
#	150
#	11065
#	22557
#	37210
#	51320
#	66367
#	78522
#	91487
#	104755
#	115537
#	126232
#	138812
#	155617
#	167385
#	183997
#	196475
#	207430
#	227715
#
# Disc length: 3236
#
# Revision: 2
# Processed by: cddbd v1.5.1PL0 Copyright (c) Steve Scherf et al.
# Submitted via: audiograbber 1.81.03
# Normalized: r1:DSETVAR1
#
DISCID=f40ca212
DTITLE=Various Artist - Country cd2
DYEAR=1900
DGENRE=Country
TTITLE0=Jim Reeves - Welcome to my world
TTITLE1=Crystall Gayle - Don't it make my brown eyes
TTITLE2=Dr Hook - A Little bit more
TTITLE3=Don Williams - Desperately
TTITLE4=Slim Whitman - Riders in the sky
TTITLE5=Glen Campbell - Galveston
TTITLE6=Billie Jo Spears - '57 Chevrolet
TTITLE7=Tanyia Tucker - San Antonio Stroll
TTITLE8=Skeeter Davis - Gonna get along without you now
TTITLE9=Jerry Reed - A thing called love
TTITLE10=Guy Clarke - A nickel for the fiddler
TTITLE11=Tom T Hall - Mr Bojangles
TTITLE12=Porter Wagoner and Dolly Parton - The last thing on my mind
TTITLE13=Linda Davis - Love story in the making
TTITLE14=Pam Tillis - When you walk in the room
TTITLE15=Willie Nelson - Hello walls
TTITLE16=Steve Wariner - Two teardrops
TTITLE17=Tanya Tucker - Delta Dawn
EXTD=
EXTT0=
EXTT1=
EXTT2=
EXTT3=
EXTT4=
EXTT5=
EXTT6=
EXTT7=
EXTT8=
EXTT9=
EXTT10=
EXTT11=
EXTT12=
EXTT13=
EXTT14=
EXTT15=
EXTT16=
EXTT17=
PLAYORDER=
